# xmcd
#
# Track frame offsets:
# 150
# 5621
# 26075
# 37049
# 40746
# 62337
# 80434
# 88591
# 105307
# 119242
# 131019
# 141835
# 158494
# 172201
#
# Disc length: 2575 seconds
#
#
# Revision: 0
# Processed by: cddbd v1.5.1PL0 Copyright (c) Steve Scherf et al.
# Submitted via: FreeRIP 2.70 
#
DISCID=b70a0d0e
DTITLE=Matt Zarb - Hillbilly Bride
DYEAR=2004
DGENRE=Folk
TTITLE0=Intro
TTITLE1=Jack O'Keefe
TTITLE2=Rose Matilda
TTITLE3=Miss Butterfly
TTITLE4=Butterfly
TTITLE5=Southern Cross
TTITLE6=Second Time Around
TTITLE7=Hillbilly Bride
TTITLE8=Cause I Want To
TTITLE9=Where Do You Go
TTITLE10=Dr Dollar
TTITLE11=Martha
TTITLE12=Widow Walk
TTITLE13=Red and Gold
EXTD=
EXTT0=
EXTT1=
EXTT2=
EXTT3=
EXTT4=
EXTT5=
EXTT6=
EXTT7=
EXTT8=
EXTT9=
EXTT10=
EXTT11=
EXTT12=
EXTT13=
PLAYORDER=
